<svg xmlns="http://www.w3.org/2000/svg" viewBox="0 0 2400 1600" width="2400" height="1600" preserveAspectRatio="xMidYMid meet" style="width: 100%; height: 100%; transform: translate3d(0px, 0px, 0px);"><defs><clipPath id="__lottie_element_2"><rect width="2400" height="1600" x="0" y="0"></rect></clipPath><clipPath id="__lottie_element_40"><path fill="#ffffff" clip-rule="nonzero" d=" M165.822998046875,-21.606000900268555 C165.822998046875,-21.606000900268555 75.96399688720703,49.78900146484375 75.96399688720703,49.78900146484375 C75.96399688720703,49.78900146484375 97.14700317382812,118.49099731445312 92.23400115966797,126.24500274658203 C87.32099914550781,133.99899291992188 80.77899932861328,143.10000610351562 67.8010025024414,153.0030059814453 C43.54899978637695,171.50900268554688 74.68199920654297,238.72500610351562 118.21800231933594,196.19500732421875 C161.75399780273438,153.6649932861328 244.81900024414062,37.86000061035156 244.81900024414062,37.86000061035156 C244.81900024414062,37.86000061035156 165.822998046875,-21.606000900268555 165.822998046875,-21.606000900268555" fill-opacity="1"></path></clipPath><mask id="__lottie_element_57" mask-type="alpha"><g transform="matrix(1,0,0,1,1279.5009765625,1041.5880126953125)" opacity="1" style="display: block;"><g opacity="1" transform="matrix(1,0,0,1,128.11099243164062,170.91400146484375)"><path fill="rgb(147,144,231)" fill-opacity="1" d=" M-52.39400100708008,-150.9250030517578 C-64.0989990234375,-148.9199981689453 -75.87999725341797,-146.63900756835938 -86.21199798583984,-140.86199951171875 C-97.52999877929688,-134.53199768066406 -108.40399932861328,-125.1729965209961 -112.69100189208984,-112.5510025024414 C-127.38200378417969,-71.86599731445312 -127.86100006103516,-51.0629997253418 -120.16600036621094,-9.656000137329102 C-114.86900329589844,18.8439998626709 -94.0510025024414,161.3459930419922 -93.36699676513672,163.05499267578125 C-92.68299865722656,164.76600646972656 -90.20800018310547,170.66400146484375 -52.8650016784668,168.30799865722656 C-17.63800048828125,166.0850067138672 -14.5600004196167,154.677001953125 -14.267000198364258,152.60000610351562 C-13.973999977111816,150.5240020751953 -15.95199966430664,115.2239990234375 -17.711000442504883,97.19599914550781 C-19.469999313354492,79.16699981689453 -30.2450008392334,-38.659000396728516 -30.902999877929688,-47.9119987487793 C-31.90399932861328,-62.007999420166016 -20.860000610351562,-69.05799865722656 2.490999937057495,-74.71099853515625 C22.49799919128418,-79.5530014038086 42.1609992980957,-85.91200256347656 61.68600082397461,-92.39600372314453 C80.6500015258789,-98.69400024414062 99.93499755859375,-107.34700012207031 113.96700286865234,-122.1050033569336 C119.39600372314453,-127.81500244140625 124.18000030517578,-134.45599365234375 126.0199966430664,-142.11700439453125 C127.86100006103516,-149.7779998779297 126.28199768066406,-158.60000610351562 120.54399871826172,-163.99899291992188 C113.46199798583984,-170.66400146484375 102.5510025024414,-170.5229949951172 92.8489990234375,-169.85299682617188 C81.39299774169922,-169.06199645996094 69.947998046875,-168.10499572753906 58.52000045776367,-166.9810028076172 C24.908000946044922,-163.6750030517578 -8.562999725341797,-158.93299865722656 -41.77000045776367,-152.77099609375 C-45.275001525878906,-152.12100219726562 -48.83100128173828,-151.53500366210938 -52.39400100708008,-150.9250030517578z"></path></g></g></mask></defs><g clip-path="url(#__lottie_element_2)"><g transform="matrix(0.987314760684967,0,0,0.987314760684967,1395.743896484375,385.2090148925781)" opacity="1" style="display: none;"><g opacity="1" transform="matrix(1,0,0,1,667.9099731445312,304.4289855957031)"><path fill="rgb(255,238,180)" fill-opacity="1" d=" M3.5,-65.75 C20.695999145507812,-65.75 34.77000045776367,-56.055999755859375 46.06999969482422,-44.81800079345703 C57.452999114990234,-33.49800109863281 62.5,-17.32200050354004 62.5,0 C62.5,8.732999801635742 63.45899963378906,18.047000885009766 60.2239990234375,25.59600067138672 C50.67300033569336,47.8849983215332 25.78499984741211,62.5 0,62.5 C-19.05299949645996,62.5 -38.11399841308594,55.2239990234375 -49.577999114990234,41.779998779296875 C-58.882999420166016,30.868000030517578 -64.75,15.96500015258789 -64.75,0.5 C-64.75,-10.109000205993652 -59.856998443603516,-20.60099983215332 -55.19300079345703,-29.35300064086914 C-44.68199920654297,-49.07600021362305 -20.409000396728516,-65.75 3.5,-65.75z"></path></g></g><g transform="matrix(0.5,0,0,0.5,2073.99951171875,926.0005493164062)" opacity="1" style="display: block;"><g opacity="1" transform="matrix(1,0,0,1,0,0)"><path fill="rgb(243,243,243)" fill-opacity="1" d=" M273.42401123046875,883.125 C273.42401123046875,883.125 273.42401123046875,883.125 273.42401123046875,883.125 C286.1830139160156,880.875 295.114013671875,869.2559814453125 294.0050048828125,856.3469848632812 C294.0050048828125,856.3469848632812 161.0050048828125,-692.4600219726562 161.0050048828125,-692.4600219726562 C161.0050048828125,-692.4600219726562 111.53600311279297,-683.7379760742188 111.53600311279297,-683.7379760742188 C111.53600311279297,-683.7379760742188 244.1540069580078,860.6279907226562 244.1540069580078,860.6279907226562 C245.41099548339844,875.2670288085938 258.9540100097656,885.676025390625 273.42401123046875,883.125z"></path></g></g><g transform="matrix(0.5,0,0,0.5,2074,926)" opacity="1" style="display: block;"><g opacity="1" transform="matrix(1,0,0,1,0,0)"><path fill="rgb(243,243,243)" fill-opacity="1" d=" M-432.7409973144531,859.14697265625 C-432.7409973144531,859.14697265625 -432.7409973144531,859.14697265625 -432.7409973144531,859.14697265625 C-419.98199462890625,861.39697265625 -407.614990234375,853.5330200195312 -404.24200439453125,841.0239868164062 C-404.24200439453125,841.0239868164062 0.503000020980835,-659.8679809570312 0.503000020980835,-659.8679809570312 C0.503000020980835,-659.8679809570312 -48.96699905395508,-668.5910034179688 -48.96699905395508,-668.5910034179688 C-48.96699905395508,-668.5910034179688 -452.5509948730469,827.9959716796875 -452.5509948730469,827.9959716796875 C-456.37701416015625,842.1820068359375 -447.21099853515625,856.5960083007812 -432.7409973144531,859.14697265625z"></path></g></g><g transform="matrix(0.5,0,0,0.5,2073.99951171875,926)" opacity="1" style="display: block;"><g opacity="1" transform="matrix(1,0,0,1,0,0)"><path fill="rgb(243,243,243)" fill-opacity="1" d=" M-396.75799560546875,302.3340148925781 C-396.75799560546875,302.3340148925781 343.0880126953125,302.3340148925781 343.0880126953125,302.3340148925781 C345.15399169921875,302.3340148925781 346.8810119628906,300.760009765625 347.0710144042969,298.7019958496094 C347.0710144042969,298.7019958496094 456.1600036621094,-881.3079833984375 456.1600036621094,-881.3079833984375 C456.37701416015625,-883.6519775390625 454.5320129394531,-885.676025390625 452.177001953125,-885.676025390625 C452.177001953125,-885.676025390625 -287.6700134277344,-885.676025390625 -287.6700134277344,-885.676025390625 C-289.7359924316406,-885.676025390625 -291.4630126953125,-884.1019897460938 -291.65301513671875,-882.0440063476562 C-291.65301513671875,-882.0440063476562 -400.7409973144531,297.96600341796875 -400.7409973144531,297.96600341796875 C-400.9580078125,300.3110046386719 -399.1130065917969,302.3340148925781 -396.75799560546875,302.3340148925781z"></path></g></g><g transform="matrix(0,0,0,0,2019.4638671875,1166.462158203125)" opacity="1" style="display: none;"><g opacity="1" transform="matrix(1,0,0,1,65.3280029296875,65.3290023803711)"><path fill="rgb(255,125,132)" fill-opacity="1" d=" M66.0790023803711,2.749000072479248 C66.0790023803711,29.753999710083008 50.38100051879883,45.66699981689453 26.95599937438965,55.516998291015625 C19.20400047302246,58.777000427246094 6.685999870300293,66.3290023803711 -2.250999927520752,66.3290023803711 C-28.299999237060547,66.3290023803711 -47.02399826049805,49.52399826049805 -57.422000885009766,27.416000366210938 C-61.37099838256836,19.020000457763672 -65.0790023803711,9.892000198364258 -65.0790023803711,-0.0010000000474974513 C-65.0790023803711,-16.937000274658203 -61.86000061035156,-31.111000061035156 -51.257999420166016,-42.6879997253418 C-39.36000061035156,-55.680999755859375 -15.256999969482422,-66.8290023803711 3.749000072479248,-66.8290023803711 C29.243000030517578,-66.8290023803711 43.81399917602539,-50.41899871826172 54.49100112915039,-29.06999969482422 C58.86600112915039,-20.320999145507812 66.0790023803711,-7.698999881744385 66.0790023803711,2.749000072479248z"></path></g></g><g transform="matrix(1.098039984703064,0,0,1.098039984703064,1330.716796875,406.57513427734375)" opacity="1" style="display: none;"><g opacity="1" transform="matrix(1,0,0,1,41.04899978637695,41.04899978637695)"><path fill="rgb(0,173,172)" fill-opacity="1" d=" M39.88800048828125,0.6830000281333923 C39.88800048828125,5.604000091552734 40.382999420166016,10.093000411987305 38.7869987487793,14.461000442504883 C36.82899856567383,19.819000244140625 32.755001068115234,24.082000732421875 28.882999420166016,28.1200008392334 C21.457000732421875,35.86399841308594 11.576000213623047,40.79899978637695 0,40.79899978637695 C-9.574000358581543,40.79899978637695 -19.97100067138672,39.095001220703125 -26.930999755859375,33.57400131225586 C-31.673999786376953,29.812000274658203 -33.51100158691406,22.966999053955078 -36.20100021362305,17.479000091552734 C-38.854000091552734,12.065999984741211 -41.481998443603516,5.751999855041504 -41.481998443603516,-0.6830000281333923 C-41.481998443603516,-7.35099983215332 -38.516998291015625,-12.961000442504883 -35.680999755859375,-18.518999099731445 C-32.29199981689453,-25.15999984741211 -27.81999969482422,-31.204999923706055 -21.518999099731445,-35.124000549316406 C-15.272000312805176,-39.0099983215332 -8.12600040435791,-39.88800048828125 -0.2280000001192093,-39.88800048828125 C4.480999946594238,-39.88800048828125 10.142999649047852,-40.000999450683594 14.35200023651123,-38.53300094604492 C21.524999618530273,-36.03099822998047 26.191999435424805,-30.899999618530273 30.906999588012695,-25.13800048828125 C36.6619987487793,-18.104999542236328 39.88800048828125,-9.11400032043457 39.88800048828125,0.6830000281333923z"></path></g></g><g transform="matrix(0.9999959468841553,0,0,0.9999959468841553,1322.2774658203125,1028.664306640625)" opacity="1" style="display: none;"><g opacity="1" transform="matrix(1,0,0,1,68.42400360107422,395.94000244140625)"><path fill="rgb(0,174,172)" fill-opacity="1" d=" M-30.20400047302246,-359.9410095214844 C-26.951000213623047,-367.1059875488281 -27.72100067138672,-378.1319885253906 -4.031000137329102,-385.3070068359375 C17.868999481201172,-391.94000244140625 31.79800033569336,-384.1050109863281 43.327999114990234,-371.54400634765625 C45.68600082397461,-368.9750061035156 53.29800033569336,-360.3559875488281 53.145999908447266,-350.27099609375 C53.03099822998047,-342.6730041503906 51.266998291015625,-341.177001953125 51.356998443603516,-337.8789978027344 C51.54899978637695,-330.8550109863281 51.7400016784668,-329.5880126953125 47.70899963378906,-324.7980041503906 C43.54899978637695,-319.8550109863281 44.5260009765625,-319.6080017089844 40.95800018310547,-316.55999755859375 C39.54800033569336,-315.3559875488281 39.29800033569336,-314.6059875488281 38.5620002746582,-311.6669921875 C37.79800033569336,-306.8559875488281 19.798999786376953,-303.3550109863281 10.045999526977539,-302.1109924316406 C-11.14799976348877,-299.4070129394531 -17.701000213623047,-312.6059875488281 -20.923999786376953,-316.3110046386719 C-22.201000213623047,-319.8559875488281 -24.201000213623047,-320.8559875488281 -26.667999267578125,-324.45098876953125 C-27.577999114990234,-325.7770080566406 -29.70199966430664,-325.6050109863281 -31.763999938964844,-332.3789978027344 C-33.34299850463867,-337.56500244140625 -32.72800064086914,-334.85400390625 -33.31800079345703,-345.0140075683594 C-33.70100021362305,-351.6050109863281 -31.499000549316406,-357.0899963378906 -30.20400047302246,-359.9410095214844z"></path></g></g><g transform="matrix(0.5054085850715637,0.004647610243409872,-0.004174601286649704,0.4539707899093628,1291.563720703125,852.1826782226562)" opacity="1" style="display: block;"><g opacity="1" transform="matrix(1,0,0,1,0,0)"><path fill="rgb(0,174,172)" fill-opacity="1" d=" M249.97300720214844,364.86700439453125 C213.07400512695312,129.15899658203125 377.8349914550781,-32.986000061035156 312.1659851074219,-213.31500244140625 C246.4980010986328,-393.6440124511719 171.81900024414062,-414.6669921875 171.16700744628906,-318.24700927734375 C170.51499938964844,-221.82699584960938 142.06500244140625,27.704999923706055 103.85600280761719,-33.49399948120117 C65.64700317382812,-94.69300079345703 127.62899780273438,-612.1430053710938 36.74100112915039,-588.1119995117188 C-54.14699935913086,-564.0809936523438 -116.10900115966797,-410.8739929199219 -67.5260009765625,-226.66099548339844 C-18.94300079345703,-42.448001861572266 -127.50399780273438,-215.5279998779297 -165.66099548339844,-291.04998779296875 C-217.2030029296875,-393.06500244140625 -377.8349914550781,-449.90899658203125 -317.1960144042969,-280.7030029296875 C-256.5580139160156,-111.49700164794922 -134.94400024414062,-31.315000534057617 -106.2239990234375,47.426998138427734 C-77.50399780273438,126.16899871826172 -70.66999816894531,281.7250061035156 -43.99300003051758,429.1650085449219 C-33.46799850463867,487.3340148925781 -15.25,612.1430053710938 -15.25,612.1430053710938 C-15.25,612.1430053710938 274.98199462890625,609.9099731445312 274.98199462890625,609.9099731445312 C274.98199462890625,609.9099731445312 256.0639953613281,403.77398681640625 249.97300720214844,364.86700439453125z"></path></g></g><g transform="matrix(1,-0.000008312683348776773,0.000008312714271596633,1.000003695487976,1076.3270263671875,977.1551513671875)" opacity="1" style="display: block;"><g opacity="1" transform="matrix(1,0,0,1,21.43600082397461,181.4199981689453)"><path fill="rgb(161,247,240)" fill-opacity="1" d=" M-21.18600082397461,181.1699981689453 C-21.18600082397461,181.1699981689453 10.680999755859375,181.1699981689453 10.680999755859375,181.1699981689453 C10.680999755859375,181.1699981689453 21.18600082397461,-201.1699981689453 21.18600082397461,-201.1699981689453 C21.18600082397461,-201.1699981689453 -10.682000160217285,-201.1699981689453 -10.682000160217285,-201.1699981689453 C-10.682000160217285,-201.1699981689453 -21.18600082397461,181.1699981689453 -21.18600082397461,181.1699981689453z"></path></g></g><g transform="matrix(1,0.000008178346433851402,-0.00000817837644717656,1.000003695487976,1250.178955078125,977.15478515625)" opacity="1" style="display: block;"><g opacity="1" transform="matrix(1,0,0,1,21.43600082397461,181.4199981689453)"><path fill="rgb(161,247,240)" fill-opacity="1" d=" M21.18600082397461,181.1699981689453 C21.18600082397461,181.1699981689453 -10.680999755859375,181.1699981689453 -10.680999755859375,181.1699981689453 C-10.680999755859375,181.1699981689453 -23.18600082397461,-197.80599975585938 -23.18600082397461,-197.80599975585938 C-23.18600082397461,-197.80599975585938 8.680999755859375,-197.80599975585938 8.680999755859375,-197.80599975585938 C8.680999755859375,-197.80599975585938 21.18600082397461,181.1699981689453 21.18600082397461,181.1699981689453z"></path></g></g><g transform="matrix(1.4918922185897827,0,0,0.2621454894542694,976.7845458984375,919.211669921875)" opacity="1" style="display: block;"><g opacity="1" transform="matrix(1,0,0,1,134.62399291992188,134.62399291992188)"><path fill="rgb(160,247,239)" fill-opacity="1" d=" M50.1879997253418,106.65499877929688 C-8.715999603271484,134.3730010986328 -78.93699645996094,109.09300231933594 -106.65599822998047,50.1879997253418 C-134.37399291992188,-8.715999603271484 -109.09200286865234,-78.93699645996094 -50.1879997253418,-106.65499877929688 C8.715999603271484,-134.3730010986328 78.93699645996094,-109.09300231933594 106.65499877929688,-50.18899917602539 C134.37399291992188,8.715999603271484 109.09200286865234,78.93699645996094 50.1879997253418,106.65499877929688z"></path></g></g><g transform="matrix(1.3811922073364258,0,0,0.4282078444957733,991.6873779296875,903.401611328125)" opacity="1" style="display: none;"><g opacity="1" transform="matrix(1,0,0,1,134.62399291992188,134.62399291992188)"><path fill="rgb(160,247,239)" fill-opacity="1" d=" M51.1879997253418,110.65499877929688 C26.61199951171875,122.22000122070312 -3.434000015258789,125.05899810791016 -28.041000366210938,119.5790023803711 C-48.36800003051758,115.052001953125 -60.87300109863281,107.19000244140625 -76.35099792480469,92.78600311279297 C-87.04499816894531,82.83399963378906 -100.05500030517578,64.21499633789062 -106.65599822998047,50.1879997253418 C-113.52200317382812,35.59600067138672 -115.63600158691406,20.309999465942383 -116.29199981689453,5.146999835968018 C-117.76300048828125,-28.84000015258789 -110.37300109863281,-61.70500183105469 -85.44000244140625,-85.23500061035156 C-76.59300231933594,-93.58399963378906 -58.792999267578125,-106.19400024414062 -47.1879997253418,-111.65499877929688 C-30.354000091552734,-119.57599639892578 -15.595000267028809,-118.16999816894531 1.8309999704360962,-117.88600158691406 C23.31599998474121,-117.53600311279297 48.29600143432617,-112.79499816894531 66.41799926757812,-101.50800323486328 C85.02899932861328,-89.91600036621094 96.625,-71.50399780273438 106.65499877929688,-50.18899917602539 C115.76899719238281,-30.81999969482422 122.15299987792969,-7.228000164031982 120.49600219726562,12.673999786376953 C118.60600280761719,35.367000579833984 107.16200256347656,54.16400146484375 93.18499755859375,72.22699737548828 C82.13999938964844,86.5009994506836 68.63899993896484,102.44300079345703 51.1879997253418,110.65499877929688z"></path></g></g><g transform="matrix(0,0,0,0,1716.1124267578125,370.694580078125)" opacity="1" style="display: block;"><g opacity="1" transform="matrix(1,0,0,1,39.654998779296875,39.654998779296875)"><path fill="rgb(109,105,223)" fill-opacity="1" d=" M39.404998779296875,0 C39.404998779296875,12.107999801635742 34.69499969482422,21.815000534057617 26.101999282836914,29.042999267578125 C19.25,34.80699920654297 9.654999732971191,38.904998779296875 0,38.904998779296875 C-8.083000183105469,38.904998779296875 -16.472000122070312,38.34700012207031 -22.725000381469727,34.17300033569336 C-33.308998107910156,27.107999801635742 -36.654998779296875,13.430999755859375 -36.654998779296875,-0.25 C-36.654998779296875,-13.329000473022461 -33.65800094604492,-25.420000076293945 -23.849000930786133,-32.58700180053711 C-17.336000442504883,-37.34600067138672 -8.309000015258789,-38.779998779296875 0.375,-38.779998779296875 C15.159000396728516,-38.779998779296875 28.541000366210938,-32.138999938964844 35.28300094604492,-20.094999313354492 C38.465999603271484,-14.409000396728516 39.404998779296875,-6.979000091552734 39.404998779296875,0z"></path></g></g><g transform="matrix(0.5004104971885681,0,0,0.4965455234050751,1169.692626953125,765.177978515625)" opacity="1" style="display: block;"><g opacity="1" transform="matrix(1,0,0,1,32.43899917602539,193.99099731445312)"><path fill="rgb(255,97,117)" fill-opacity="1" d=" M-32.18899917602539,189.74099731445312 C-32.18899917602539,189.74099731445312 -32.18899917602539,-189.74099731445312 -32.18899917602539,-189.74099731445312 C-32.18899917602539,-191.9510040283203 -30.398000717163086,-193.74099731445312 -28.18899917602539,-193.74099731445312 C-28.18899917602539,-193.74099731445312 28.18899917602539,-193.74099731445312 28.18899917602539,-193.74099731445312 C30.398000717163086,-193.74099731445312 32.18899917602539,-191.9510040283203 32.18899917602539,-189.74099731445312 C32.18899917602539,-189.74099731445312 32.18899917602539,189.74099731445312 32.18899917602539,189.74099731445312 C32.18899917602539,191.9510040283203 30.398000717163086,193.74099731445312 28.18899917602539,193.74099731445312 C28.18899917602539,193.74099731445312 -28.18899917602539,193.74099731445312 -28.18899917602539,193.74099731445312 C-30.398000717163086,193.74099731445312 -32.18899917602539,191.9510040283203 -32.18899917602539,189.74099731445312z"></path></g></g><g transform="matrix(0.5004104971885681,0,0,0.4965455234050751,1139.0345458984375,767.6602783203125)" opacity="1" style="display: block;"><g opacity="1" transform="matrix(1,0,0,1,31.382999420166016,193.99200439453125)"><path fill="rgb(255,215,153)" fill-opacity="1" d=" M-31.132999420166016,189.74099731445312 C-31.132999420166016,189.74099731445312 -31.132999420166016,-189.74200439453125 -31.132999420166016,-189.74200439453125 C-31.132999420166016,-191.9510040283203 -29.341999053955078,-193.74200439453125 -27.132999420166016,-193.74200439453125 C-27.132999420166016,-193.74200439453125 27.132999420166016,-193.74200439453125 27.132999420166016,-193.74200439453125 C29.343000411987305,-193.74200439453125 31.132999420166016,-191.9510040283203 31.132999420166016,-189.74200439453125 C31.132999420166016,-189.74200439453125 31.132999420166016,189.74099731445312 31.132999420166016,189.74099731445312 C31.132999420166016,191.9510040283203 29.343000411987305,193.74099731445312 27.132999420166016,193.74099731445312 C27.132999420166016,193.74099731445312 -27.132999420166016,193.74099731445312 -27.132999420166016,193.74099731445312 C-29.341999053955078,193.74099731445312 -31.132999420166016,191.9510040283203 -31.132999420166016,189.74099731445312z"></path></g></g><g transform="matrix(0.5004104971885681,0,0,0.4965455234050751,1201.40869140625,767.278076171875)" opacity="1" style="display: block;"><g opacity="1" transform="matrix(1,0,0,1,32.43899917602539,193.99200439453125)"><path fill="rgb(221,157,230)" fill-opacity="1" d=" M-32.18899917602539,189.74099731445312 C-32.18899917602539,189.74099731445312 -32.18899917602539,-189.74099731445312 -32.18899917602539,-189.74099731445312 C-32.18899917602539,-191.9499969482422 -30.398000717163086,-193.74099731445312 -28.18899917602539,-193.74099731445312 C-28.18899917602539,-193.74099731445312 28.18899917602539,-193.74099731445312 28.18899917602539,-193.74099731445312 C30.398000717163086,-193.74099731445312 32.18899917602539,-191.9499969482422 32.18899917602539,-189.74099731445312 C32.18899917602539,-189.74099731445312 32.18899917602539,189.74099731445312 32.18899917602539,189.74099731445312 C32.18899917602539,191.9499969482422 30.398000717163086,193.74099731445312 28.18899917602539,193.74099731445312 C28.18899917602539,193.74099731445312 -28.18899917602539,193.74099731445312 -28.18899917602539,193.74099731445312 C-30.398000717163086,193.74099731445312 -32.18899917602539,191.9499969482422 -32.18899917602539,189.74099731445312z"></path></g></g><g transform="matrix(0.5004104971885681,0,0,0.4965455234050751,1147.7158203125,766.170654296875)" opacity="1" style="display: block;"><g opacity="1" transform="matrix(1,0,0,1,13.03600025177002,63.10599899291992)"><path fill="rgb(255,255,255)" fill-opacity="1" d=" M9.416999816894531,61.65700149536133 C9.416999816894531,61.65700149536133 1.36899995803833,54.10300064086914 1.36899995803833,54.10300064086914 C0.5989999771118164,53.38100051879883 -0.5989999771118164,53.38100051879883 -1.36899995803833,54.10300064086914 C-1.36899995803833,54.10300064086914 -9.416999816894531,61.65700149536133 -9.416999816894531,61.65700149536133 C-10.694000244140625,62.85599899291992 -12.78600025177002,61.95000076293945 -12.78600025177002,60.19900131225586 C-12.78600025177002,60.19900131225586 -12.78600025177002,-9.019000053405762 -12.78600025177002,-9.019000053405762 C-12.78600025177002,-9.019000053405762 -12.78600025177002,-60.56100082397461 -12.78600025177002,-60.56100082397461 C-12.78600025177002,-61.827999114990234 -11.758000373840332,-62.85599899291992 -10.491000175476074,-62.85599899291992 C-10.491000175476074,-62.85599899291992 10.489999771118164,-62.85599899291992 10.489999771118164,-62.85599899291992 C11.758000373840332,-62.85599899291992 12.78600025177002,-61.827999114990234 12.78600025177002,-60.56100082397461 C12.78600025177002,-60.56100082397461 12.78600025177002,-9.019000053405762 12.78600025177002,-9.019000053405762 C12.78600025177002,-9.019000053405762 12.78600025177002,60.19900131225586 12.78600025177002,60.19900131225586 C12.78600025177002,61.95000076293945 10.694000244140625,62.85599899291992 9.416999816894531,61.65700149536133z"></path></g></g><g transform="matrix(1,0,0,1,1364.635009765625,702.8759765625)" opacity="1" style="display: block;"><g opacity="1" transform="matrix(1,0,0,1,216.4429931640625,246.8470001220703)"><path fill="rgb(144,143,224)" fill-opacity="1" d=" M-216.1929931640625,220.58299255371094 C-216.1929931640625,220.58299255371094 -87.84400177001953,246.5970001220703 -2.5380001068115234,242.1999969482422 C-2.5380001068115234,242.1999969482422 -1.659000039100647,240.80999755859375 41.433998107910156,220.58299255371094 C84.5260009765625,200.3560028076172 136.3990020751953,176.50999450683594 142.55499267578125,157.16299438476562 C148.71099853515625,137.81500244140625 206.10299682617188,-135.4499969482422 211.8000030517578,-174.84300231933594 C216.19200134277344,-205.2220001220703 193.70899963378906,-232.875 163.072998046875,-234.7779998779297 C163.072998046875,-234.7779998779297 12.317000389099121,-244.98300170898438 12.317000389099121,-244.98300170898438 C-13.663999557495117,-246.5970001220703 -36.90800094604492,-228.93600463867188 -42.316001892089844,-203.47300720214844 C-42.316001892089844,-203.47300720214844 -84.32599639892578,-1.718000054359436 -84.32599639892578,-1.718000054359436 C-84.32599639892578,-1.718000054359436 -216.1929931640625,220.58299255371094 -216.1929931640625,220.58299255371094z"></path></g><g opacity="1" transform="matrix(1,0,0,1,206.427001953125,574.2689819335938)"><path fill="rgb(144,143,224)" fill-opacity="1" d=" M22.208999633789062,106.25 C22.208999633789062,106.25 -9.657999992370605,106.25 -9.657999992370605,106.25 C-9.657999992370605,106.25 -22.208999633789062,-106.2509994506836 -22.208999633789062,-106.2509994506836 C-22.208999633789062,-106.2509994506836 9.659000396728516,-106.2509994506836 9.659000396728516,-106.2509994506836 C9.659000396728516,-106.2509994506836 22.208999633789062,106.25 22.208999633789062,106.25z"></path></g><g opacity="1" transform="matrix(1,0,0,1,376.989013671875,525.0289916992188)"><path fill="rgb(144,143,224)" fill-opacity="1" d=" M32.26599884033203,129.51199340820312 C32.26599884033203,129.51199340820312 32.26599884033203,129.51199340820312 32.26599884033203,129.51199340820312 C26.378999710083008,129.51199340820312 21.22100067138672,125.5719985961914 19.673999786376953,119.89099884033203 C19.673999786376953,119.89099884033203 -50.196998596191406,-121.45700073242188 -50.196998596191406,-121.45700073242188 C-50.196998596191406,-121.45700073242188 -15.769000053405762,-129.51300048828125 -15.769000053405762,-129.51300048828125 C-15.769000053405762,-129.51300048828125 -17.97599983215332,-121.94599914550781 -17.107999801635742,-117.91100311279297 C-15.008000373840332,-108.15499877929688 47.46799850463867,109.61599731445312 47.46799850463867,109.61599731445312 C50.196998596191406,119.63800048828125 42.65299987792969,129.51199340820312 32.26599884033203,129.51199340820312z"></path></g></g><g transform="matrix(0.4066799581050873,-0.24987246096134186,0.24987246096134186,0.4066799581050873,1584.54541015625,619.2969970703125)" opacity="1" style="display: block;"><g opacity="1" transform="matrix(1,0,0,1,0,0)"><path fill="rgb(167,133,108)" fill-opacity="1" d=" M-71.2490005493164,-210.63400268554688 C-71.2490005493164,-210.63400268554688 -96.88600158691406,-201.91799926757812 -111.4530029296875,-186.46200561523438 C-135.63999938964844,-160.7989959716797 -133.55299377441406,-145.35800170898438 -142.0189971923828,-132.5570068359375 C-152.27000427246094,-117.05699920654297 -177.79800415039062,-102.16999816894531 -184.70799255371094,-91.97699737548828 C-185.947998046875,-88.60700225830078 -187.28900146484375,-86.18800354003906 -182.16200256347656,-80.26100158691406 C-182.16200256347656,-80.26100158691406 -171.0399932861328,-71.6989974975586 -173.16400146484375,-66.97799682617188 C-173.16400146484375,-66.97799682617188 -179.33799743652344,-53.73099899291992 -179.33799743652344,-53.73099899291992 C-179.33799743652344,-53.73099899291992 -167.98599243164062,-35.691001892089844 -167.98599243164062,-35.691001892089844 C-167.98599243164062,-35.691001892089844 -187.59800720214844,-24.884000778198242 -187.59800720214844,-24.884000778198242 C-187.59800720214844,-24.884000778198242 -185.1909942626953,-11.972999572753906 -185.1909942626953,-11.972999572753906 C-185.1909942626953,-11.972999572753906 -197.80499267578125,1.1619999408721924 -196.74200439453125,11.82699966430664 C-196.74200439453125,11.82699966430664 -196.15199279785156,30.214000701904297 -166.72999572753906,38.21500015258789 C-112.48699951171875,52.96500015258789 -128.2050018310547,43.93600082397461 -145.95199584960938,128.68299865722656 C-156.2989959716797,178.09300231933594 -55.99700164794922,283.3380126953125 -55.99700164794922,283.3380126953125 C-55.99700164794922,283.3380126953125 52.81999969482422,275.26300048828125 35.132999420166016,243.9980010986328 C-8.77400016784668,166.38600158691406 113.06800079345703,-50.132999420166016 113.06800079345703,-50.132999420166016 C113.06800079345703,-50.132999420166016 4.72599983215332,-229.42999267578125 -71.2490005493164,-210.63400268554688z"></path></g></g><g transform="matrix(0.4066799581050873,-0.24987246096134186,0.24987246096134186,0.4066799581050873,1584.54541015625,619.2969970703125)" opacity="1" style="display: block;"><g opacity="1" transform="matrix(1,0,0,1,0,0)"><path fill="rgb(61,61,141)" fill-opacity="1" d=" M-153.3730010986328,-32.250999450683594 C-153.3730010986328,-32.250999450683594 -168.031005859375,-51.720001220703125 -172.9080047607422,-54.5890007019043 C-177.78500366210938,-57.45800018310547 -179.4199981689453,-54.5880012512207 -180.6529998779297,-52.58100128173828 C-181.88600158691406,-50.57400131225586 -182.75799560546875,-41.23699951171875 -177.23599243164062,-37.141998291015625 C-177.23599243164062,-37.141998291015625 -191.2469940185547,-32.577999114990234 -187.70199584960938,-23.98699951171875 C-184.15699768066406,-15.395999908447266 -164.3489990234375,-26.166000366210938 -153.3730010986328,-32.250999450683594z"></path></g></g><g transform="matrix(0.4955277740955353,-0.066724993288517,0.066724993288517,0.4955277740955353,1320.034423828125,1429.0279541015625)" opacity="1" style="display: block;"><g opacity="1" transform="matrix(1,0,0,1,0,0)"><path fill="rgb(61,61,142)" fill-opacity="1" d=" M147.72300720214844,-62.44499969482422 C146.34100341796875,-82.31600189208984 144.40199279785156,-109.83699798583984 144.40199279785156,-109.83699798583984 C144.40199279785156,-109.83699798583984 26.079999923706055,-109.83699798583984 26.079999923706055,-109.83699798583984 C26.079999923706055,-109.83699798583984 24.676000595092773,-92.27799987792969 24.676000595092773,-92.27799987792969 C24.676000595092773,-92.27799987792969 22.99799919128418,-65.87899780273438 1.9259999990463257,-49.7239990234375 C-19.145999908447266,-33.569000244140625 -28.003999710083008,-26.954999923706055 -62.42100143432617,-12.906999588012695 C-96.83799743652344,1.1410000324249268 -129.1479949951172,12.378999710083008 -143.1959991455078,25.02199935913086 C-157.24400329589844,37.66600036621094 -157.68099975585938,48.16600036621094 -153.73300170898438,58.03499984741211 C-148.11399841308594,72.08300018310547 -111.86199951171875,109.83699798583984 -54.26599884033203,92.2770004272461 C3.3299999237060547,74.71700286865234 19.523000717163086,63.31700134277344 42.92100143432617,55.516998291015625 C49.68000030517578,53.26499938964844 56.141998291015625,51.37900161743164 62.28200149536133,49.78900146484375 C82.48999786376953,45.917999267578125 101.69000244140625,43.32500076293945 113.23100280761719,41.50199890136719 C152.70599365234375,35.26599884033203 157.67999267578125,13.906999588012695 157.65699768066406,4.331999778747559 C157.6269989013672,-8.302000045776367 149.10499572753906,-42.57400131225586 147.72300720214844,-62.44499969482422z"></path></g></g><g transform="matrix(0.49997973442077637,-0.00450147595256567,0.00450147595256567,0.49997973442077637,1182.3685302734375,1368.765869140625)" opacity="1" style="display: block;"><g opacity="1" transform="matrix(1,0,0,1,0,0)"><path fill="rgb(61,61,142)" fill-opacity="1" d=" M-65.40599822998047,-28.29199981689453 C-129.39500427246094,-19.00200080871582 -146.80099487304688,-12.753999710083008 -156.6230010986328,9.548999786376953 C-160.927001953125,19.32200050354004 -161.87100219726562,35.64500045776367 -150.9219970703125,51.45199966430664 C-137.54400634765625,70.76499938964844 -93.91200256347656,85.94200134277344 -57.994998931884766,87.08300018310547 C-22.077999114990234,88.2229995727539 6.986000061035156,77.43399810791016 33.50699996948242,73.2300033569336 C67.55999755859375,67.83300018310547 101.08499908447266,64.9229965209961 119.59300231933594,61.999000549316406 C157.13999938964844,56.06700134277344 161.8719940185547,35.750999450683594 161.85000610351562,26.643999099731445 C161.81700134277344,12.86400032043457 151.072998046875,-40.13800048828125 161.093994140625,-58.176998138427734 C161.093994140625,-58.176998138427734 117.59700012207031,-56.29899978637695 100.20899963378906,-64.27999877929688 C82.82099914550781,-72.26100158691406 58.02199935913086,-88.2239990234375 58.02199935913086,-88.2239990234375 C58.02199935913086,-88.2239990234375 20.79400062561035,-40.80699920654297 -65.40599822998047,-28.29199981689453z"></path></g></g><g transform="matrix(1,0.000002825888714141911,-0.000002825888714141911,1,1191.5802001953125,992.388671875)" opacity="1" style="display: block;"><g opacity="1" transform="matrix(1,0,0,1,83.5260009765625,178.1439971923828)"><path fill="rgb(107,108,214)" fill-opacity="1" d=" M-7.670000076293945,168.04100036621094 C-9.21399974822998,170.53500366210938 -19.31800079345703,177.8939971923828 -47.45100021362305,172.1790008544922 C-75.59300231933594,166.46299743652344 -82.5469970703125,156.427001953125 -82.81199645996094,155.28700256347656 C-83.2760009765625,153.2830047607422 -40.72100067138672,-131.5570068359375 -3.490999937057495,-161.14100646972656 C14.11299991607666,-175.12899780273438 38.13399887084961,-177.8939971923828 57.6619987487793,-165.718994140625 C71.84400177001953,-156.8780059814453 81.3270034790039,-140.9199981689453 82.31400299072266,-124.23699951171875 C83.2760009765625,-107.96199798583984 76.70600128173828,-92.30699920654297 70.5250015258789,-77.22000122070312 C61.058998107910156,-54.1150016784668 52.21799850463867,-30.753999710083008 44.012001037597656,-7.171999931335449 C33.21500015258789,23.85700035095215 23.518999099731445,55.26900100708008 14.946999549865723,86.98500061035156 C10.66100025177002,102.84300231933594 6.6570000648498535,118.7760009765625 2.936000108718872,134.77699279785156 C1.3539999723434448,141.58200073242188 -0.15299999713897705,147.5070037841797 -3.0920000076293945,153.7519989013672 C-5.158999919891357,158.1439971923828 -5.125,163.9290008544922 -7.670000076293945,168.04100036621094z"></path></g></g><g transform="matrix(1,0,0,1,1279.5009765625,1041.5880126953125)" opacity="1" style="display: block;"><g opacity="1" transform="matrix(1,0,0,1,128.11099243164062,170.91400146484375)"><path fill="rgb(107,108,214)" fill-opacity="1" d=" M-52.39400100708008,-150.9250030517578 C-64.0989990234375,-148.9199981689453 -75.87999725341797,-146.63900756835938 -86.21199798583984,-140.86199951171875 C-97.52999877929688,-134.53199768066406 -108.40399932861328,-125.1729965209961 -112.69100189208984,-112.5510025024414 C-127.38200378417969,-71.86599731445312 -127.86100006103516,-51.0629997253418 -120.16600036621094,-9.656000137329102 C-114.86900329589844,18.8439998626709 -94.0510025024414,161.3459930419922 -93.36699676513672,163.05499267578125 C-92.68299865722656,164.76600646972656 -90.20800018310547,170.66400146484375 -52.8650016784668,168.30799865722656 C-17.63800048828125,166.0850067138672 -14.5600004196167,154.677001953125 -14.267000198364258,152.60000610351562 C-13.973999977111816,150.5240020751953 -15.95199966430664,115.2239990234375 -17.711000442504883,97.19599914550781 C-19.469999313354492,79.16699981689453 -30.2450008392334,-38.659000396728516 -30.902999877929688,-47.9119987487793 C-31.90399932861328,-62.007999420166016 -20.860000610351562,-69.05799865722656 2.490999937057495,-74.71099853515625 C22.49799919128418,-79.5530014038086 42.1609992980957,-85.91200256347656 61.68600082397461,-92.39600372314453 C80.6500015258789,-98.69400024414062 99.93499755859375,-107.34700012207031 113.96700286865234,-122.1050033569336 C119.39600372314453,-127.81500244140625 124.18000030517578,-134.45599365234375 126.0199966430664,-142.11700439453125 C127.86100006103516,-149.7779998779297 126.28199768066406,-158.60000610351562 120.54399871826172,-163.99899291992188 C113.46199798583984,-170.66400146484375 102.5510025024414,-170.5229949951172 92.8489990234375,-169.85299682617188 C81.39299774169922,-169.06199645996094 69.947998046875,-168.10499572753906 58.52000045776367,-166.9810028076172 C24.908000946044922,-163.6750030517578 -8.562999725341797,-158.93299865722656 -41.77000045776367,-152.77099609375 C-45.275001525878906,-152.12100219726562 -48.83100128173828,-151.53500366210938 -52.39400100708008,-150.9250030517578z"></path></g></g><g mask="url(#__lottie_element_57)" style="display: block;"><g transform="matrix(1,0,0,1,1333.958984375,1022.947998046875)" opacity="1"><g opacity="1" transform="matrix(1,0,0,1,85.60199737548828,58.801998138427734)"><path fill="rgb(94,99,182)" fill-opacity="1" d=" M-64.3270034790039,-18.426000595092773 C-64.34200286865234,-18.430999755859375 -64.35700225830078,-18.437000274658203 -64.37200164794922,-18.441999435424805 C-71.0510025024414,-20.823999404907227 -78.33899688720703,-23.719999313354492 -81.5719985961914,-30.031999588012695 C-85.35199737548828,-37.4109992980957 -81.68099975585938,-46.96799850463867 -75.09400177001953,-52.00299835205078 C-68.50599670410156,-57.0369987487793 -59.81800079345703,-58.395999908447266 -51.527000427246094,-58.45800018310547 C-39.027000427246094,-58.551998138427734 -26.53499984741211,-55.97999954223633 -15.032999992370605,-51.10200119018555 C-3.2690000534057617,-46.112998962402344 6.9629998207092285,-38.24599838256836 18.118000030517578,-32.20800018310547 C30.576000213623047,-25.464000701904297 42.96200180053711,-18.43600082397461 54.047000885009766,-9.614999771118164 C65.13099670410156,-0.7940000295639038 74.93800354003906,9.942999839782715 81.08899688720703,22.70400047302246 C83.50199890136719,27.708999633789062 85.35199737548828,33.47200012207031 83.63700103759766,38.757999420166016 C77.21600341796875,58.55099868774414 52.97999954223633,44.073001861572266 43.03499984741211,36.803001403808594 C10.411999702453613,12.954999923706055 -26.339000701904297,-4.888999938964844 -64.3270034790039,-18.426000595092773z"></path></g></g></g><g transform="matrix(1,0,0,1,1263.155029296875,988.093017578125)" opacity="1" style="display: block;"><g opacity="1" transform="matrix(1,0,0,1,189.2570037841797,79.35900115966797)"><path fill="rgb(107,108,214)" fill-opacity="1" d=" M-131.8699951171875,-11.833000183105469 C-137.93699645996094,-12.880000114440918 -144.00799560546875,-13.906000137329102 -150.0760040283203,-14.942999839782715 C-157.1750030517578,-16.156999588012695 -164.33999633789062,-17.253000259399414 -171.1840057373047,-19.572999954223633 C-174.86399841308594,-20.820999145507812 -178.3489990234375,-22.36199951171875 -181.24400329589844,-25.01300048828125 C-183.95599365234375,-27.49799919128418 -186.05299377441406,-30.660999298095703 -187.2310028076172,-34.14899826049805 C-189.0070037841797,-39.409000396728516 -188.67300415039062,-45.347999572753906 -186.31900024414062,-50.375 C-184.35499572753906,-54.57099914550781 -181.08099365234375,-58.05699920654297 -177.34100341796875,-60.79100036621094 C-173.6009979248047,-63.52399826049805 -169.3939971923828,-65.55000305175781 -165.1280059814453,-67.3550033569336 C-157.44400024414062,-70.60700225830078 -149.47900390625,-73.1969985961914 -141.3509979248047,-75.08699798583984 C-132.54100036621094,-77.13700103759766 -123.28199768066406,-77.94999694824219 -114.2509994506836,-78.5009994506836 C-104.95800018310547,-79.06800079345703 -95.63999938964844,-79.10900115966797 -86.33599853515625,-78.83200073242188 C-77.08699798583984,-78.55599975585938 -67.85199737548828,-77.96499633789062 -58.62799835205078,-77.25 C-37.01599884033203,-75.572998046875 -15.460000038146973,-73.1510009765625 6.048999786376953,-70.47599792480469 C20.441999435424805,-68.68599700927734 34.82899856567383,-66.79900360107422 49.176998138427734,-64.67900085449219 C49.176998138427734,-64.67900085449219 149.43299865722656,-54.566001892089844 149.43299865722656,-54.566001892089844 C149.43299865722656,-54.566001892089844 189.0070037841797,37.334999084472656 189.0070037841797,37.334999084472656 C189.0070037841797,37.334999084472656 116.89299774169922,79.10900115966797 43.89899826049805,49.20800018310547 C16.72100067138672,38.07500076293945 -10.032999992370605,25.985000610351562 -36.90399932861328,14.142000198364258 C-51.479000091552734,7.7179999351501465 -65.25800323486328,2.0929999351501465 -80.79000091552734,-1.937999963760376 C-97.5469970703125,-6.289000034332275 -114.7490005493164,-9.470999717712402 -131.8699951171875,-11.833000183105469z"></path></g></g><g transform="matrix(0.9993207454681396,0.036850202828645706,-0.036850202828645706,0.9993207454681396,1289.2821044921875,768.4755249023438)" opacity="1" style="display: block;"><g opacity="1" transform="matrix(1,0,0,1,0,0)"><path fill="rgb(255,255,255)" fill-opacity="1" d=" M269.75,-80 C257.5,-76.75 261.25,-49.5 264.5,-8 C267.75,33.5 361.5350036621094,-10.722000122070312 369.5350036621094,-67.22200012207031 C377.5350036621094,-123.72200012207031 282,-83.25 269.75,-80z"></path></g></g><g transform="matrix(0.9998798370361328,-0.015500705689191818,0.015500705689191818,0.9998798370361328,1457.07666015625,694.4426879882812)" opacity="1" style="display: block;"><g opacity="1" transform="matrix(1,0,0,1,135.67100524902344,229.23399353027344)"><path fill="rgb(204,234,255)" fill-opacity="1" d=" M134.98199462890625,-21.875999450683594 C134.54200744628906,-72.88300323486328 130.14500427246094,-174.0189971923828 121.79000091552734,-194.68600463867188 C113.43599700927734,-215.35299682617188 71.47799682617188,-228.76400756835938 71.47799682617188,-228.76400756835938 C39.4370002746582,-196.22900390625 27.250999450683594,-182.37399291992188 -4.848999977111816,-186.33099365234375 C-36.948001861572266,-190.28900146484375 -24.197999954223633,-225.46600341796875 -24.197999954223633,-225.46600341796875 C-24.197999954223633,-225.46600341796875 -43.54399871826172,-221.947998046875 -66.8489990234375,-213.1540069580078 C-90.15499877929688,-204.35899353027344 -97.60900115966797,-192.8939971923828 -100.34100341796875,-185.0970001220703 C-124.52899932861328,-116.06400299072266 -98.05500030517578,-66.93199920654297 -97.91699981689453,-35.58399963378906 C-97.77899932861328,-4.236000061035156 -135.4219970703125,78.06300354003906 -135.4219970703125,78.06300354003906 C-135.4219970703125,78.06300354003906 -99.07099914550781,82.55699920654297 -49.047000885009766,95.72100067138672 C-1.024999976158142,108.35800170898438 4.3420000076293945,138.38800048828125 14.425000190734863,157.968994140625 C50.994998931884766,228.98399353027344 86.27200317382812,213.4669952392578 110.38200378417969,152.6929931640625 C122.15699768066406,123.01200103759766 135.4219970703125,29.131999969482422 134.98199462890625,-21.875999450683594z"></path></g></g><g transform="matrix(0.5372454524040222,-0.008328684605658054,0.0073986416682600975,0.47725263237953186,1616.354248046875,638.1926879882812)" opacity="1" style="display: block;"><g opacity="1" transform="matrix(1,0,0,1,0,0)"><path fill="rgb(204,234,255)" fill-opacity="1" d=" M-125.08300018310547,83.50199890136719 C-110.01300048828125,88.0989990234375 -54.314998626708984,81.37699890136719 16.01099967956543,56.26100158691406 C38.61600112915039,44.95899963378906 41.972999572753906,70.76399993896484 58.71699905395508,93.08999633789062 C66.22599792480469,103.10199737548828 77.78700256347656,107.18299865722656 95.36799621582031,115.55500030517578 C122.15899658203125,135.6479949951172 -108.36199951171875,308.2850036621094 -133.47799682617188,191.0760040283203 C-156.41400146484375,84.04000091552734 -140.1529998779297,78.90499877929688 -125.08300018310547,83.50199890136719z"></path></g></g><g transform="matrix(0.4374968409538269,-0.19084379076957703,0.19084379076957703,0.4374968409538269,1576.240234375,628.3768920898438)" opacity="1" style="display: block;"><g opacity="1" transform="matrix(1,0,0,1,0,0)"><path fill="rgb(29,30,89)" fill-opacity="1" d=" M181.00100708007812,75.05000305175781 C161.6739959716797,24.42300033569336 192.88099670410156,19.545000076293945 195.2779998779297,-24.260000228881836 C197.8040008544922,-70.42500305175781 167.97000122070312,-75.47599792480469 159.94900512695312,-134.3470001220703 C150.29299926757812,-205.21499633789062 100.19000244140625,-232.16700744628906 29.27400016784668,-241.52999877929688 C-4.175000190734863,-245.9459991455078 -26.40999984741211,-245.5590057373047 -57.512001037597656,-240.6750030517578 C-109.69499969482422,-232.47900390625 -116.73400115966797,-197.83599853515625 -117.36799621582031,-192.43899536132812 C-119.55999755859375,-173.77000427246094 -117.44400024414062,-138.34300231933594 -53.93299865722656,-99.09200286865234 C-27.868999481201172,-82.98400115966797 -7.497000217437744,-110.0530014038086 9.40999984741211,-87.37899780273438 C24.031999588012695,-67.76899719238281 8.89799976348877,-38.145999908447266 -13.366000175476074,-11.954000473022461 C-24.326000213623047,0.9390000104904175 -49.57699966430664,26.174999237060547 -56.70600128173828,35.99300003051758 C-77.6520004272461,64.83899688720703 -75.2969970703125,98.94999694824219 -47,123.60700225830078 C-20.231000900268555,146.93299865722656 11.097000122070312,124.29100036621094 50.36899948120117,129.6790008544922 C84.00399780273438,134.29299926757812 96.60700225830078,164.16099548339844 137.2480010986328,157.51199340820312 C186.51400756835938,149.45199584960938 193.447998046875,107.65599822998047 181.00100708007812,75.05000305175781z"></path></g></g><g clip-path="url(#__lottie_element_40)" transform="matrix(0.9985255002975464,0.054285142570734024,-0.054285142570734024,0.9985255002975464,1359.3828125,696.5606689453125)" opacity="1" style="display: block;"><g opacity="1" transform="matrix(1,0,0,1,109.50700378417969,108.12300109863281)"><path fill="rgb(204,234,255)" fill-opacity="1" d=" M-21.986000061035156,126.88800048828125 C-36.604000091552734,128.80599975585938 -60.249000549316406,105.01300048828125 -73.05999755859375,101.81300354003906 C-77.73899841308594,100.64399719238281 -82.43099975585938,99.5270004272461 -87.09200286865234,98.28600311279297 C-91.19000244140625,97.19499969482422 -95.50900268554688,96.2040023803711 -99.18800354003906,94.02999877929688 C-102.1240005493164,92.29499816894531 -104.5009994506836,89.66600036621094 -106.11299896240234,86.67500305175781 C-108.01699829101562,83.13899993896484 -108.90799713134766,79.14099884033203 -109.14700317382812,75.15399932861328 C-109.25700378417969,73.31800079345703 -108.75800323486328,71.89199829101562 -108.19000244140625,70.1510009765625 C-107.56600189208984,68.23600006103516 -106.72699737548828,66.38999938964844 -105.68000030517578,64.66899871826172 C-97.95999908447266,51.9739990234375 -83.31500244140625,50.62699890136719 -69.86699676513672,51.404998779296875 C-63.0260009765625,51.79999923706055 -54.35900115966797,52.67499923706055 -48.117000579833984,49.19300079345703 C-22.100000381469727,34.68199920654297 -8.795000076293945,3.865999937057495 0.22699999809265137,-13.833000183105469 C17.04199981689453,-46.81999969482422 25.95199966430664,-68.64099884033203 29.4689998626709,-76.11599731445312 C34.6510009765625,-87.12699890136719 40.09700012207031,-94.8010025024414 51.33100128173828,-100.22899627685547 C63.4119987487793,-106.06600189208984 75.76699829101562,-107.87300109863281 87.57499694824219,-99.66699981689453 C109.25800323486328,-84.59700012207031 107.24500274658203,-53.97999954223633 97.68000030517578,-32.50699996948242 C86.88500213623047,-8.277000427246094 72.2490005493164,16.423999786376953 55.303001403808594,36.637001037597656 C43.422000885009766,50.805999755859375 31.21500015258789,85.48699951171875 17.746000289916992,98.15599822998047 C6.315999984741211,108.90699768066406 -3.622999906539917,124.47899627685547 -21.986000061035156,126.88800048828125z"></path></g></g><g transform="matrix(0.9994571208953857,-0.0329454243183136,0.0329454243183136,0.9994571208953857,1553.453369140625,924.7415161132812)" opacity="1" style="display: block;"><g opacity="1" transform="matrix(1,0,0,1,72.52400207519531,56.15999984741211)"><path fill="rgb(181,207,225)" fill-opacity="1" d=" M68.77999877929688,-55.90999984741211 C38.76599884033203,-50.465999603271484 14.845000267028809,-6.369999885559082 -5.260000228881836,5.843999862670898 C-22.31599998474121,16.20599937438965 -53.68600082397461,15.781000137329102 -72.27400207519531,40.35100173950195 C-72.11199951171875,40.42399978637695 -71.93800354003906,40.49100112915039 -71.73799896240234,40.542999267578125 C-54.494998931884766,45.11199951171875 -3.9210000038146973,55.90999984741211 21.729000091552734,41.69300079345703 C45.9739990234375,28.253999710083008 72.27400207519531,-51.78099822998047 68.77999877929688,-55.90999984741211z"></path></g></g><g transform="matrix(0.9994571208953857,-0.0329454243183136,0.0329454243183136,0.9994571208953857,1526.7593994140625,901.0501098632812)" opacity="1" style="display: block;"><g opacity="1" transform="matrix(1,0,0,1,57.41600036621094,44.9370002746582)"><path fill="rgb(181,207,225)" fill-opacity="1" d=" M35.74599838256836,35.03799819946289 C45.834999084472656,25.388999938964844 57.16600036621094,-31.93000030517578 38.28099822998047,-44.6870002746582 C27.09600067138672,-30.94099998474121 29.464000701904297,-26.68899917602539 10.555999755859375,-3.0510001182556152 C-4.609000205993652,15.906999588012695 -44.75699996948242,12.576000213623047 -57.16699981689453,17.913999557495117 C-53.98099899291992,17.871000289916992 25.656999588012695,44.6870002746582 35.74599838256836,35.03799819946289z"></path></g></g><g transform="matrix(-0.22304870188236237,-0.9748073220252991,0.6726178526878357,-0.1539037823677063,1344.8592529296875,945.53564453125)" opacity="1" style="display: block;"><g opacity="1" transform="matrix(1,0,0,1,48.23500061035156,93.33100128173828)"><path fill="rgb(204,234,255)" fill-opacity="1" d=" M-18.759000778198242,-17.613000869750977 C-15.505000114440918,-26.631999969482422 -5.610000133514404,-51.58300018310547 0.6470000147819519,-55.85900115966797 C4.400000095367432,-58.42300033569336 12.85099983215332,-57.507999420166016 17.268999099731445,-54.80799865722656 C26.413000106811523,-49.22100067138672 29.481000900268555,-39.22600173950195 30.950000762939453,-33.90399932861328 C32.41899871826172,-28.582000732421875 32.1510009765625,-16.249000549316406 31.36400032043457,-9.079999923706055 C30.57699966430664,-1.9110000133514404 24.871000289916992,16.718000411987305 23.479999542236328,28.854999542236328 C22.645000457763672,36.13600158691406 31.822999954223633,70.7509994506836 23.03700065612793,90.68199920654297 C15.461000442504883,107.86799621582031 -16.319000244140625,106.41200256347656 -25.406999588012695,91.16899871826172 C-34.494998931884766,75.92500305175781 -36.15999984741211,60.66400146484375 -33.59600067138672,39.027000427246094 C-30.81399917602539,15.543999671936035 -22.01300048828125,-8.593999862670898 -18.759000778198242,-17.613000869750977z"></path></g></g><g transform="matrix(0.7092975974082947,-0.7049091458320618,0.649193525314331,0.653235137462616,1298.6064453125,741.1743774414062)" opacity="1" style="display: none;"><g opacity="1" transform="matrix(1,0,0,1,39.83700180053711,74.00800323486328)"><path fill="rgb(167,133,108)" fill-opacity="1" d=" M25.288808822631836,-48.132720947265625 C25.551082611083984,-53.19736099243164 24.003421783447266,-54.109554290771484 22.416826248168945,-59.07233428955078 C19.4722843170166,-67.81834411621094 8.228022575378418,-67.25939178466797 1.984559178352356,-55.08030319213867 C1.941141963005066,-55.089473724365234 2.0811092853546143,-54.76850509643555 2.029109239578247,-54.7545051574707 C2.0081090927124023,-54.756507873535156 1.589585304260254,-54.131961822509766 1.5685852766036987,-54.13396072387695 C1.5685852766036987,-54.13396072387695 1.1654720306396484,-53.7062873840332 1.1654720306396484,-53.7062873840332 C-1.8500635623931885,-49.09635925292969 -4.425055503845215,-40.47783279418945 -7.13105583190918,-30.795833587646484 C-11.472055435180664,-15.258832931518555 -15.36698055267334,7.520265579223633 -18.182979583740234,17.658266067504883 C-20.998979568481445,27.796266555786133 -30.52197265625,41.333988189697266 -34.66597366333008,49.40998840332031 C-38.810970306396484,57.48598861694336 -27.36642837524414,68.61631774902344 -20.939428329467773,70.12031555175781 C-11.75442886352539,72.27031707763672 -3.7006232738494873,67.86616516113281 -2.6349258422851562,61.7480583190918 C-0.9555585980415344,54.358985900878906 0.7630822658538818,43.73232650756836 5.832082271575928,34.157325744628906 C10.901082038879395,24.582324981689453 13.080041885375977,13.886909484863281 14.477309226989746,3.8652055263519287 C15.329184532165527,-2.4806950092315674 16.198001861572266,-5.943931579589844 16.42115592956543,-12.631631851196289 C16.635725021362305,-14.937104225158691 17.181779861450195,-15.054984092712402 17.331653594970703,-17.567251205444336 C18.242467880249023,-24.28403091430664 20.255901336669922,-29.36672019958496 22.474605560302734,-30.806453704833984 C24.708511352539062,-30.885417938232422 26.428390502929688,-27.008577346801758 26.99201202392578,-33.986412048339844 C27.49884605407715,-39.16300582885742 25.242015838623047,-42.00127029418945 25.288808822631836,-48.132720947265625z"></path></g></g><g transform="matrix(0.9985279440879822,0.05429289862513542,0.09006441384553909,1.0063766241073608,1286.1650390625,843.44677734375)" opacity="1" style="display: block;"><g opacity="1" transform="matrix(1,0,0,1,52.875999450683594,25.242000579833984)"><path fill="rgb(167,133,108)" fill-opacity="1" d=" M-52.104000091552734,-4.242000102996826 C-46.38399887084961,-6.281000137329102 -39.53300094604492,-10.138999938964844 -37.970001220703125,-10.529999732971191 C-36.40599822998047,-10.920999526977539 -33.474998474121094,-19.90999984741211 -31.910999298095703,-21.474000930786133 C-30.347999572753906,-23.03700065612793 -29.174999237060547,-24.992000579833984 -19.795000076293945,-23.624000549316406 C-10.413999557495117,-22.256000518798828 5.025000095367432,-21.864999771118164 8.152000427246094,-22.059999465942383 C13.255000114440918,-22.378999710083008 19.638999938964844,-21.62299919128418 24.288999557495117,-19.58799934387207 C29.85099983215332,-17.155000686645508 35.720001220703125,-15.423999786376953 41.7130012512207,-14.456000328063965 C43.542999267578125,-14.15999984741211 45.90599822998047,-13.973999977111816 47.323001861572266,-12.644000053405762 C48.61199951171875,-11.434000015258789 49.827999114990234,-9.489999771118164 50.60499954223633,-7.9029998779296875 C52.45399856567383,-4.129000186920166 52.62699890136719,0.27300000190734863 52.03799819946289,4.434000015258789 C51.428001403808594,8.753000259399414 49.98400115966797,13.048999786376953 47.224998474121094,16.42799949645996 C43.132999420166016,21.43899917602539 34.69499969482422,24.992000579833984 28.490999221801758,22.031999588012695 C25.73900032043457,20.7189998626709 22.983999252319336,19.253999710083008 20.61199951171875,17.31800079345703 C20.464000701904297,17.197999954223633 18.801000595092773,15.439000129699707 18.704999923706055,15.463000297546387 C18.70199966430664,15.463000297546387 6.197000026702881,18.59000015258789 2.875,20.347999572753906 C-0.44699999690055847,22.10700035095215 -3.5739998817443848,23.94300079345703 -6.701000213623047,23.67099952697754 C-10.975000381469727,23.29800033569336 -11.194999694824219,15.463000297546387 -8.850000381469727,12.531000137329102 C-6.504000186920166,9.600000381469727 0.5299999713897705,6.2769999504089355 -1.4240000247955322,4.126999855041504 C-3.378000020980835,1.9780000448226929 -7.889999866485596,-1.3450000286102295 -15.121000289916992,-0.06599999964237213 C-18.458999633789062,0.5239999890327454 -28.601999282836914,2.0769999027252197 -44.159000396728516,5.051000118255615 C-59.715999603271484,8.024999618530273 -57.82400131225586,-2.203000068664551 -52.104000091552734,-4.242000102996826z"></path></g></g><g transform="matrix(0.6301239728927612,-0.776494562625885,0.7002610564231873,0.5682606101036072,1253.1220703125,997.611572265625)" opacity="1" style="display: none;"><g opacity="1" transform="matrix(1,0,0,1,0,0)"><path fill="rgb(167,133,108)" fill-opacity="1" d=" M244,-103 C233.25,-90.5 235.125,-67.52999877929688 241,-55.25 C245.1750030517578,-46.52399826049805 246.48199462890625,-47.91699981689453 251.3419952392578,-50.917999267578125 C258.7090148925781,-55.46799850463867 254.93499755859375,-67.76699829101562 260.7560119628906,-76.81600189208984 C277.8420104980469,-103.37699890136719 254.75,-115.5 244,-103z"></path></g></g><g transform="matrix(0.9993209838867188,0.03684531897306442,-0.03684531897306442,0.9993209838867188,1239.363037109375,857.414306640625)" opacity="1" style="display: block;"><g opacity="1" transform="matrix(1,0,0,1,85.59200286865234,63.17399978637695)"><path fill="rgb(59,56,148)" fill-opacity="1" d=" M83.68499755859375,44.51100158691406 C83.68499755859375,44.51100158691406 -42.86600112915039,-60.04399871826172 -42.86600112915039,-60.04399871826172 C-45.32899856567383,-62.077999114990234 -48.60200119018555,-62.92399978637695 -51.777000427246094,-62.34700012207031 C-51.777000427246094,-62.34700012207031 -82.38200378417969,-57.68600082397461 -82.38200378417969,-57.68600082397461 C-82.9739990234375,-57.577999114990234 -83.43699645996094,-57.262001037597656 -83.73699951171875,-56.84600067138672 C-83.86599731445312,-56.66699981689453 -83.9530029296875,-56.46699905395508 -84.02100372314453,-56.26100158691406 C-84.02100372314453,-56.26100158691406 -84.03299713134766,-56.25699996948242 -84.03299713134766,-56.25699996948242 C-84.03299713134766,-56.25699996948242 -85.0979995727539,-53.143001556396484 -85.0979995727539,-53.143001556396484 C-85.0979995727539,-53.143001556396484 -85.0979995727539,-53.143001556396484 -85.0979995727539,-53.143001556396484 C-85.34300231933594,-52.40599822998047 -85.17900085449219,-51.54399871826172 -84.49099731445312,-50.94499969482422 C-84.49099731445312,-50.94499969482422 44.222999572753906,61.21200180053711 44.222999572753906,61.21200180053711 C45.97100067138672,62.766998291015625 46.40999984741211,62.92399978637695 48.23500061035156,62.57400131225586 C48.23500061035156,62.57400131225586 81.052001953125,54.83300018310547 81.052001953125,54.83300018310547 C82.52200317382812,54.40999984741211 83.50499725341797,53.34700012207031 83.91300201416016,52.11199951171875 C83.91300201416016,52.11199951171875 83.91600036621094,52.11199951171875 83.91600036621094,52.11199951171875 C83.91600036621094,52.11199951171875 85.06999969482422,48.76900100708008 85.13999938964844,48.32699966430664 C85.13999938964844,48.32699966430664 85.15599822998047,48.27899932861328 85.15599822998047,48.27899932861328 C85.15599822998047,48.27899932861328 85.14900207519531,48.27299880981445 85.14900207519531,48.27299880981445 C85.34300231933594,46.939998626708984 84.89800262451172,45.51300048828125 83.68499755859375,44.51100158691406z"></path></g></g><g transform="matrix(0.999879777431488,-0.015505591407418251,0.015505591407418251,0.999879777431488,1334.132080078125,936.5938720703125)" opacity="1" style="display: block;"><g opacity="1" transform="matrix(1,0,0,1,66.43399810791016,35.59199905395508)"><path fill="rgb(167,133,108)" fill-opacity="1" d=" M-34.86600112915039,-28.089000701904297 C-38.861000061035156,-29.194000244140625 -54.76300048828125,-35.340999603271484 -59.55099868774414,-35.23899841308594 C-62.68600082397461,-35.172000885009766 -66.18399810791016,-34.292999267578125 -63.8390007019043,-26.865999221801758 C-61.49300003051758,-19.440000534057617 -51.111000061035156,-17.09600067138672 -46.3650016784668,-9.815999984741211 C-43.64099884033203,-5.638999938964844 -45.236000061035156,-1.281999945640564 -36.50400161743164,5.290999889373779 C-24.570999145507812,14.27400016784668 -28.965999603271484,24.107999801635742 10.095000267028809,26.7549991607666 C17.138999938964844,27.23200035095215 56.3390007019043,34.16899871826172 64.35199737548828,35.34199905395508 C64.35199737548828,35.34199905395508 66.18399810791016,-1.7660000324249268 66.18399810791016,-1.7660000324249268 C66.18399810791016,-1.7660000324249268 44.625999450683594,-2.4630000591278076 31.531999588012695,-9.888999938964844 C18.437999725341797,-17.31599998474121 6.61299991607666,-28.202999114990234 -0.5199999809265137,-28.104999542236328 C-7.6529998779296875,-28.006999969482422 -9.619000434875488,-25.160999298095703 -15.774999618530273,-24.63599967956543 C-23.746000289916992,-23.95599937438965 -30.871000289916992,-26.983999252319336 -34.86600112915039,-28.089000701904297z"></path></g></g><g transform="matrix(0.9994571208953857,-0.0329454243183136,0.0329454243183136,0.9994571208953857,1445.0638427734375,848.0158081054688)" opacity="1" style="display: block;"><g opacity="1" transform="matrix(1,0,0,1,136.9429931640625,90.74700164794922)"><path fill="rgb(204,234,255)" fill-opacity="1" d=" M136.6929931640625,-90.49700164794922 C136.6929931640625,-90.49700164794922 114.87799835205078,-22.486000061035156 105.88800048828125,1.7480000257492065 C96.89800262451172,25.981000900268555 78.16100311279297,66.06900024414062 58.055999755859375,78.28299713134766 C37.95100021362305,90.49700164794922 -13.128999710083008,87.93299865722656 -47.525001525878906,84.61000061035156 C-76.83200073242188,81.77899932861328 -124.96299743652344,69.87999725341797 -135.15199279785156,66.9469985961914 C-136.36000061035156,66.5989990234375 -136.6929931640625,65.0479965209961 -135.73500061035156,64.23500061035156 C-131.22900390625,60.40700149536133 -125.69999694824219,56.07500076293945 -124.21399688720703,45.625999450683594 C-122.77400207519531,35.50899887084961 -124.51599884033203,31.679000854492188 -125.6449966430664,28.81399917602539 C-125.927001953125,28.09600067138672 -125.36799621582031,27.33300018310547 -124.5979995727539,27.385000228881836 C-120.22699737548828,27.68000030517578 -97.06900024414062,27.267000198364258 -86.19599914550781,27.520000457763672 C-72.54000091552734,27.836999893188477 -56.80799865722656,28.033000946044922 -48.50199890136719,27.545000076293945 C-31.891000747680664,26.566999435424805 4.5329999923706055,27.226999282836914 14.621999740600586,17.57699966430664 C24.711000442504883,7.927999973297119 35.72800064086914,-26.59000015258789 38.65999984741211,-34.79800033569336 C41.590999603271484,-43.00600051879883 50.38600158691406,-61.37699890136719 52.53499984741211,-68.9990005493164 C52.53499984741211,-68.9990005493164 136.6929931640625,-90.49700164794922 136.6929931640625,-90.49700164794922z"></path></g></g></g></svg>